<svg xmlns="http://www.w3.org/2000/svg" xmlns:xlink="http://www.w3.org/1999/xlink" width="80" zoomAndPan="magnify" viewBox="0 0 60 38.999999" height="52" preserveAspectRatio="xMidYMid meet" version="1.0"><rect x="-6" width="72" fill="#ffffff" y="-3.9" height="46.799999" fill-opacity="1"/><rect x="-6" width="72" fill="#ffffff" y="-3.9" height="46.799999" fill-opacity="1"/><rect x="-6" width="72" fill="#f2f2f2" y="-3.9" height="46.799999" fill-opacity="1"/><path fill="#dd101a" d="M 63.800781 0 L 63.800781 39 L 46.917969 39 L 46.917969 0 Z M 63.800781 0 " fill-opacity="1" fill-rule="nonzero"/><path fill="#dd101a" d="M 13.207031 0 L 13.207031 39 L -3.679688 39 L -3.679688 0 Z M 13.207031 0 " fill-opacity="1" fill-rule="nonzero"/><path fill="#dd101a" d="M 36.515625 25.023438 L 43.082031 19.710938 L 41.433594 19.175781 C 41.296875 19.128906 41.222656 18.984375 41.269531 18.847656 L 42.695312 14.539062 L 38.699219 15.453125 C 38.574219 15.480469 38.445312 15.414062 38.398438 15.292969 L 37.667969 13.378906 L 34.113281 17.199219 C 33.980469 17.34375 33.738281 17.222656 33.773438 17.027344 L 35.382812 8.707031 L 32.867188 10.054688 C 32.738281 10.121094 32.582031 10.074219 32.515625 9.949219 L 30.0625 5.464844 L 27.609375 9.949219 C 27.539062 10.074219 27.382812 10.121094 27.257812 10.054688 L 24.738281 8.707031 L 26.347656 17.027344 C 26.386719 17.222656 26.144531 17.34375 26.007812 17.199219 L 22.457031 13.378906 L 21.726562 15.292969 C 21.679688 15.414062 21.550781 15.480469 21.421875 15.453125 L 17.429688 14.539062 L 18.855469 18.847656 C 18.898438 18.984375 18.824219 19.132812 18.6875 19.175781 L 17.039062 19.710938 L 23.605469 25.023438 C 23.820312 25.195312 23.898438 25.484375 23.796875 25.742188 L 23 27.78125 L 28.96875 26.765625 C 29.398438 26.695312 29.785156 27.035156 29.765625 27.472656 L 29.457031 33.535156 L 30.664062 33.535156 L 30.359375 27.472656 C 30.335938 27.035156 30.726562 26.695312 31.15625 26.765625 L 37.125 27.78125 L 36.328125 25.742188 C 36.226562 25.484375 36.304688 25.195312 36.515625 25.023438 Z M 36.515625 25.023438 " fill-opacity="1" fill-rule="nonzero"/></svg>