<svg xmlns="http://www.w3.org/2000/svg" xmlns:xlink="http://www.w3.org/1999/xlink" width="80" zoomAndPan="magnify" viewBox="0 0 60 38.999999" height="52" preserveAspectRatio="xMidYMid meet" version="1.0"><rect x="-6" width="72" fill="#ffffff" y="-3.9" height="46.799999" fill-opacity="1"/><rect x="-6" width="72" fill="#ffffff" y="-3.9" height="46.799999" fill-opacity="1"/><path fill="#012169" d="M -2.488281 0.00390625 L 62.761719 0.00390625 L 62.761719 38.996094 L -2.488281 38.996094 Z M -2.488281 0.00390625 " fill-opacity="1" fill-rule="nonzero"/><path fill="#ffffff" d="M 62.761719 0.00390625 L 62.761719 5.585938 L 50.339844 12.941406 L 45.757812 15.652344 L 39.257812 19.5 L 38.011719 20.238281 L 37.660156 20.445312 L 36.722656 21 L 35.589844 21.671875 L 35.238281 21.878906 L 34.15625 22.519531 L 33.804688 22.730469 L 32.757812 23.347656 L 31.734375 23.953125 L 31.382812 24.160156 L 30.136719 24.902344 L 28.175781 26.058594 L 26.273438 27.1875 L 23.546875 28.800781 L 6.324219 38.996094 L -2.488281 38.996094 L -2.488281 33.414062 L 9.933594 26.058594 L 14.511719 23.347656 L 21.011719 19.5 L 22.261719 18.761719 L 22.609375 18.554688 L 23.546875 18 L 24.683594 17.328125 L 25.03125 17.121094 L 26.117188 16.480469 L 26.273438 16.386719 L 26.464844 16.273438 L 27.511719 15.652344 L 28.539062 15.046875 L 28.886719 14.835938 L 30.136719 14.097656 L 32.09375 12.941406 L 34 11.8125 L 36.722656 10.199219 L 53.945312 0.00390625 Z M 62.761719 0.00390625 " fill-opacity="1" fill-rule="nonzero"/><path fill="#c8102e" d="M 61.984375 0.00390625 L 40.132812 12.941406 L 35.554688 15.652344 L 34.15625 16.480469 L 32.90625 17.21875 L 32.390625 17.523438 L 30.316406 18.75 L 30.136719 18.859375 L 29.050781 19.5 L 28.535156 19.804688 L 26.28125 21.140625 L 25.03125 21.878906 L 22.550781 23.347656 L 22.035156 23.65625 L 17.972656 26.058594 L 12.429688 26.058594 L 17.007812 23.347656 L 22.261719 20.238281 L 23.367188 19.585938 L 23.507812 19.5 L 24.027344 19.195312 L 26.09375 17.96875 L 26.28125 17.859375 L 27.363281 17.21875 L 29.953125 15.683594 L 30.136719 15.578125 L 31.382812 14.835938 L 34 13.289062 L 35.105469 12.632812 L 36.539062 11.785156 L 36.722656 11.675781 L 56.441406 0.00390625 Z M 61.984375 0.00390625 " fill-opacity="1" fill-rule="nonzero"/><path fill="#c8102e" d="M 47.84375 12.941406 L 43.261719 15.652344 L 38.011719 18.761719 L 37.84375 18.859375 L 36.90625 19.414062 L 36.761719 19.5 L 34.183594 21.027344 L 34.171875 21.03125 L 33.992188 21.140625 L 32.90625 21.78125 L 30.136719 23.421875 L 28.886719 24.160156 L 26.273438 25.710938 L 23.546875 27.324219 L 3.832031 38.996094 L -1.714844 38.996094 L 20.136719 26.058594 L 24.71875 23.347656 L 25.234375 23.042969 L 26.089844 22.535156 L 26.117188 22.519531 L 26.285156 22.421875 L 27.363281 21.78125 L 27.964844 21.425781 L 30.136719 20.140625 L 31.21875 19.5 L 33.8125 17.964844 L 33.820312 17.960938 L 33.992188 17.859375 L 35.238281 17.121094 L 37.71875 15.652344 L 42.296875 12.941406 Z M 47.84375 12.941406 " fill-opacity="1" fill-rule="nonzero"/><path fill="#ffffff" d="M 62.761719 33.414062 L 62.761719 38.996094 L 53.945312 38.996094 L 36.722656 28.800781 L 34 27.1875 L 32.09375 26.058594 L 30.136719 24.902344 L 28.886719 24.160156 L 28.539062 23.953125 L 27.511719 23.347656 L 26.464844 22.730469 L 26.273438 22.613281 L 26.117188 22.519531 L 25.03125 21.878906 L 24.683594 21.671875 L 23.546875 21 L 22.609375 20.445312 L 22.261719 20.238281 L 21.011719 19.5 L 14.511719 15.652344 L 9.933594 12.941406 L -2.488281 5.585938 L -2.488281 0.00390625 L 6.324219 0.00390625 L 23.546875 10.199219 L 26.273438 11.8125 L 28.175781 12.941406 L 30.136719 14.097656 L 31.382812 14.835938 L 31.734375 15.046875 L 32.757812 15.652344 L 33.804688 16.273438 L 34 16.386719 L 34.15625 16.480469 L 35.238281 17.121094 L 35.589844 17.328125 L 36.722656 18 L 37.660156 18.554688 L 38.011719 18.761719 L 39.257812 19.5 L 45.757812 23.347656 L 50.339844 26.058594 Z M 62.761719 33.414062 " fill-opacity="1" fill-rule="nonzero"/><path fill="#c8102e" d="M 62.761719 34.890625 L 62.761719 38.175781 L 42.300781 26.058594 L 37.71875 23.347656 L 35.40625 21.980469 L 35.238281 21.878906 L 33.992188 21.140625 L 31.734375 19.804688 L 31.21875 19.5 L 30.136719 18.859375 L 29.953125 18.75 L 27.363281 17.21875 L 26.28125 16.578125 L 26.117188 16.480469 L 26.089844 16.460938 L 24.71875 15.652344 L 20.65625 13.246094 L 20.136719 12.941406 L 23.546875 12.941406 L 23.546875 11.675781 L 26.273438 13.289062 L 28.886719 14.835938 L 29.746094 15.34375 L 30.136719 15.578125 L 30.320312 15.683594 L 32.90625 17.21875 L 33.992188 17.859375 L 34.183594 17.972656 L 36.761719 19.5 L 36.90625 19.585938 L 38.011719 20.238281 L 42.746094 23.042969 L 43.261719 23.347656 L 47.84375 26.058594 Z M 62.761719 34.890625 " fill-opacity="1" fill-rule="nonzero"/><path fill="#c8102e" d="M 40.132812 26.058594 L 36.722656 26.058594 L 36.722656 27.324219 L 36.539062 27.214844 L 34 25.710938 L 31.550781 24.261719 L 31.382812 24.160156 L 30.136719 23.421875 L 29.953125 23.316406 L 27.957031 22.132812 L 27.878906 22.089844 L 27.363281 21.78125 L 26.28125 21.140625 L 26.09375 21.03125 L 26.085938 21.027344 L 23.507812 19.5 L 22.261719 18.761719 L 17.007812 15.652344 L 12.945312 13.246094 L 12.429688 12.941406 L -2.488281 4.109375 L -2.488281 0.824219 L 17.972656 12.941406 L 22.035156 15.34375 L 22.550781 15.652344 L 23.730469 16.351562 L 24.867188 17.019531 L 25.03125 17.121094 L 26.28125 17.859375 L 26.453125 17.960938 L 26.464844 17.96875 L 29.050781 19.5 L 30.136719 20.140625 L 30.316406 20.25 L 32.390625 21.476562 L 32.90625 21.78125 L 33.988281 22.421875 L 34.15625 22.519531 L 34.183594 22.535156 L 35.035156 23.042969 L 35.554688 23.347656 Z M 40.132812 26.058594 " fill-opacity="1" fill-rule="nonzero"/><path fill="#ffffff" d="M 62.761719 12.941406 L 62.761719 26.058594 L 36.722656 26.058594 L 36.722656 38.996094 L 23.546875 38.996094 L 23.546875 26.058594 L -2.488281 26.058594 L -2.488281 12.941406 L 23.546875 12.941406 L 23.546875 0.00390625 L 36.722656 0.00390625 L 36.722656 12.941406 Z M 62.761719 12.941406 " fill-opacity="1" fill-rule="nonzero"/><path fill="#c8102e" d="M 62.761719 15.652344 L 34 15.652344 L 34 0.00390625 L 26.273438 0.00390625 L 26.273438 15.652344 L -2.488281 15.652344 L -2.488281 23.347656 L 26.273438 23.347656 L 26.273438 38.996094 L 34 38.996094 L 34 23.347656 L 62.761719 23.347656 Z M 62.761719 15.652344 " fill-opacity="1" fill-rule="nonzero"/></svg>